# xmcd CD database file
#
# Track frame offsets:
#	225
#	12239
#	21360
#	34462
#	53651
#	69591
#	81500
#	93029
#	105387
#	117481
#	130676
#	140727
#	161933
#	179816
#	198610
#	210144
#	221846
#	233890
#	244840
#	257813
#	271486
#
# Disc length: 3762 seconds
#
# Revision: 3
# Processed by: cddbd v1.5.2PL0 Copyright (c) Steve Scherf et al.
# Submitted via: CDex 1.40Release
#
DISCID=3f0eaf15
DTITLE=Country Moods and Memories - Disc 1
DYEAR=1900
DGENRE=Country
TTITLE0=Eddie Arnold - Make The World Go Away
TTITLE1=Charlie Pride - Kiss An Angel Good Mornin'
TTITLE2=Dolly Parton - I Will Always Love You
TTITLE3=Vince Gill - When I Call Your Name
TTITLE4=Randy Travis - Forever And Ever, Amen
TTITLE5=Crystal Gayle - Don't It Make My Brown Eyes Blue
TTITLE6=Freddy Fender - Before The Next Teardrop Falls
TTITLE7=Johnny Cash - Ring Of Fire
TTITLE8=Tammy Wynette - Stand By Your Man
TTITLE9=Waylon Jennings - Amanda
TTITLE10=The Statler Brothers - Do You Know You Are My Sunshine
TTITLE11=Gary Morris - The Wind Beneath My Wings
TTITLE12=Linda Ronstadt - Crazy
TTITLE13=Glen Campbell - Still Within The Sound Of My Voice
TTITLE14=Sammi Smith - Help Me Make It Through The Night
TTITLE15=Don Gibson - I Can't Stop Loving You
TTITLE16=Marie Osmond - Paper Roses
TTITLE17=Conway Twitty - Hello Darlin'
TTITLE18=Hank Williams, Sr. - Jambalaya (On The Bayou)
TTITLE19=Patti Page - The Tennessee Waltz
TTITLE20=Jimmie Rodgers - Kisses Sweeter Than Wine
EXTD=ID3G: 2
EXTT0=
EXTT1=
EXTT2=
EXTT3=
EXTT4=
EXTT5=
EXTT6=
EXTT7=
EXTT8=
EXTT9=
EXTT10=
EXTT11=
EXTT12=
EXTT13=
EXTT14=
EXTT15=
EXTT16=
EXTT17=
EXTT18=
EXTT19=
EXTT20=
PLAYORDER=
